<svg xmlns="http://www.w3.org/2000/svg" viewBox="0 0 100 100">
  <circle cx="50" cy="50" r="48" fill="#FFF" stroke="#0038A8" stroke-width="4"/>
  <circle cx="50" cy="50" r="38" fill="none" stroke="#CE1126" stroke-width="2" stroke-dasharray="4 2"/>
  
  <!-- Sun -->
  <g transform="translate(50, 35)">
    <circle cx="0" cy="0" r="10" fill="#FCD116"/>
    <path d="M0 -16 L3 -11 L0 -10 L-3 -11 Z" fill="#FCD116" />
    <path d="M0 16 L3 11 L0 10 L-3 11 Z" fill="#FCD116" />
    <path d="M16 0 L11 3 L10 0 L11 -3 Z" fill="#FCD116" />
    <path d="M-16 0 L-11 3 L-10 0 L-11 -3 Z" fill="#FCD116" />
    <path d="M11 -11 L9 -8 L7 -9 L8 -12 Z" fill="#FCD116" />
    <path d="M-11 -11 L-9 -8 L-7 -9 L-8 -12 Z" fill="#FCD116" />
    <path d="M11 11 L9 8 L7 9 L8 12 Z" fill="#FCD116" />
    <path d="M-11 11 L-9 8 L-7 9 L-8 12 Z" fill="#FCD116" />
  </g>

  <!-- House / Community Structure -->
  <path d="M30 65 L30 50 L50 35 L70 50 L70 65 Z" fill="#0038A8"/>
  <rect x="42" y="52" width="16" height="13" fill="#FFF"/>
  <path d="M25 50 L50 30 L75 50" stroke="#CE1126" stroke-width="4" fill="none" stroke-linecap="round" stroke-linejoin="round"/>
  
  <!-- Text approximation (Lines) -->
  <path d="M30 80 Q50 85 70 80" stroke="#FCD116" stroke-width="3" stroke-linecap="round"/>
</svg>